<svg xmlns="http://www.w3.org/2000/svg" viewBox="0 0 27.15 27.154"><path d="M26.744,16.861A13.572,13.572,0,1,1,16.858.406a13.573,13.573,0,0,1,9.887,16.455h0Z" transform="translate(0 0)" fill="#2b2e35"/><path d="M3.515,12.63l0,0L5.575,10.57h0l3.54,3.54,3.542-3.542,2.061,2.059h0l-5.6,5.6Zm10.6-3.514,2.06-2.06,2.06,2.06-2.06,2.06ZM0,9.115l2.06-2.06,2.06,2.06-2.06,2.06ZM9.115,4.12l-3.54,3.54h0L3.515,5.6,9.115,0l5.6,5.6-2.06,2.06Z" transform="translate(4.341 4.583)" fill="#fcc513"/><path d="M4.151,2.076h0L2.077,0,.543,1.534h0L.366,1.71,0,2.074l0,0,0,0L2.077,4.154,4.152,2.078h0" transform="translate(11.5 11.5)" fill="#fcc513"/></svg>