<svg xmlns="http://www.w3.org/2000/svg" width="13.402" height="14" viewBox="0 0 13.402 14">
  <g id="Group_3310" data-name="Group 3310" transform="translate(-653.384 -859)">
    <circle id="Ellipse_122" data-name="Ellipse 122" cx="4.957" cy="4.957" r="4.957" transform="translate(655 861)" fill="#fff"/>
    <path id="Path_512" data-name="Path 512" d="M112.225,29.174a2.836,2.836,0,0,0,2.427-.789,1.159,1.159,0,0,1,.807-.386,1.06,1.06,0,0,1,.659.254,1.775,1.775,0,0,1,.156.139,2.826,2.826,0,0,0,2.413.773,1.207,1.207,0,0,1,.887.171,1.159,1.159,0,0,1,.426.787,2.836,2.836,0,0,0,1.5,2.065,1.037,1.037,0,0,1,.5,1.536,2.836,2.836,0,0,0,0,2.552,1.037,1.037,0,0,1-.5,1.536,2.835,2.835,0,0,0-1.5,2.065,1.037,1.037,0,0,1-1.306.949,2.836,2.836,0,0,0-2.427.789,1.037,1.037,0,0,1-1.615,0,2.836,2.836,0,0,0-2.427-.789,1.037,1.037,0,0,1-1.306-.949,2.836,2.836,0,0,0-1.5-2.065,1.037,1.037,0,0,1-.5-1.536,2.836,2.836,0,0,0,0-2.552,1.037,1.037,0,0,1,.5-1.536,2.835,2.835,0,0,0,1.5-2.065,1.037,1.037,0,0,1,1.306-.949Zm2.536,6.206a.059.059,0,0,1-.084,0l-1.4-1.4a.059.059,0,0,0-.084,0l-.977.978a.059.059,0,0,0,0,.084l2.465,2.465a.059.059,0,0,0,.084,0l3.947-3.947a.059.059,0,0,0,0-.084l-.978-.978a.059.059,0,0,0-.084,0l-2.885,2.885Z" transform="translate(544.626 831.001)" fill="#8f63ff" fill-rule="evenodd"/>
  </g>
</svg>
