<svg xmlns="http://www.w3.org/2000/svg" width="16" height="15" viewBox="0 0 16 15">
  <g id="noun-upload-3025118" transform="translate(-125.233 -70.062)">
    <path id="Path_558" data-name="Path 558" d="M139.374,353.664H127.092a1.91,1.91,0,0,1-1.859-1.956v-3.349H126.4v3.349a.71.71,0,0,0,.691.727h12.282a.71.71,0,0,0,.691-.727v-3.349h1.168v3.349a1.91,1.91,0,0,1-1.859,1.956Z" transform="translate(0 -268.602)" fill="#e8eaec"/>
    <path id="Path_559" data-name="Path 559" d="M333.59,92.969h1.229v10.1H333.59Z" transform="translate(-200.972 -22.049)" fill="#e8eaec"/>
    <path id="Path_560" data-name="Path 560" d="M251.795,74.869l-3.07-3.07-3.07,3.07-.87-.868,3.941-3.938L252.665,74Z" transform="translate(-115.492)" fill="#e8eaec"/>
  </g>
</svg>
