<svg id="Bitcoin_BTC_" data-name="Bitcoin (BTC)" xmlns="http://www.w3.org/2000/svg" width="60" height="60.007" viewBox="0 0 60 60.007">
  <path id="Bitcoin_BTC_2" data-name="Bitcoin (BTC)" d="M59.1,37.261A29.993,29.993,0,1,1,37.254.9,30,30,0,0,1,59.1,37.261h0Z" transform="translate(0 0)" fill="#f7931a"/>
  <path id="Bitcoin_BTC_3" data-name="Bitcoin (BTC)" d="M28.631,15.276c.6-3.993-2.443-6.139-6.6-7.571L23.38,2.3l-3.292-.82L18.775,6.742c-.866-.216-1.754-.419-2.638-.621L17.46.82,14.169,0,12.82,5.407c-.716-.163-1.42-.324-2.1-.494l0-.017L6.181,3.762,5.305,7.278s2.443.56,2.391.594A1.752,1.752,0,0,1,9.231,9.788L7.695,15.949a2.675,2.675,0,0,1,.342.11l-.348-.086L5.536,24.6a1.2,1.2,0,0,1-1.509.782c.033.048-2.393-.6-2.393-.6L0,28.558l4.284,1.068c.8.2,1.578.409,2.347.606L5.269,35.7l3.289.82,1.349-5.413c.9.244,1.77.469,2.624.681l-1.345,5.387,3.293.82,1.362-5.46c5.614,1.063,9.836.634,11.612-4.444,1.432-4.088-.071-6.447-3.025-7.984,2.151-.5,3.772-1.911,4.2-4.834h0Z" transform="translate(14.599 10.453)" fill="#fff"/>
  <path id="Bitcoin_BTC_4" data-name="Bitcoin (BTC)" d="M10.133,5.923C9.115,10.012,2.232,7.8,0,7.248L1.808,0C4.04.557,11.2,1.66,10.133,5.923Z" transform="translate(25.575 30.353)" fill="#f7931a"/>
  <path id="Bitcoin_BTC_5" data-name="Bitcoin (BTC)" d="M8.516,5.207C7.588,8.926,1.859,7.036,0,6.573L1.639,0C3.5.463,9.483,1.328,8.516,5.207Z" transform="translate(28.21 20.462)" fill="#f7931a"/>
</svg>
