<svg xmlns="http://www.w3.org/2000/svg" width="17.231" height="18" viewBox="0 0 17.231 18">
  <g id="Group_986" data-name="Group 986" transform="translate(-653.384 -859)">
    <circle id="Ellipse_122" data-name="Ellipse 122" cx="7" cy="7" r="7" transform="translate(655 861)" fill="#fff"/>
    <path id="Path_512" data-name="Path 512" d="M113.215,29.509a3.646,3.646,0,0,0,3.12-1.014,1.491,1.491,0,0,1,1.038-.5,1.363,1.363,0,0,1,.847.327,2.286,2.286,0,0,1,.2.179,3.634,3.634,0,0,0,3.1.994,1.552,1.552,0,0,1,1.14.219,1.49,1.49,0,0,1,.548,1.012,3.646,3.646,0,0,0,1.929,2.655,1.334,1.334,0,0,1,.641,1.974,3.646,3.646,0,0,0,0,3.281,1.334,1.334,0,0,1-.642,1.974,3.645,3.645,0,0,0-1.929,2.655,1.334,1.334,0,0,1-1.68,1.22,3.646,3.646,0,0,0-3.12,1.014,1.333,1.333,0,0,1-2.076,0,3.646,3.646,0,0,0-3.12-1.014,1.333,1.333,0,0,1-1.679-1.22,3.646,3.646,0,0,0-1.929-2.655,1.334,1.334,0,0,1-.641-1.974,3.646,3.646,0,0,0,0-3.281,1.334,1.334,0,0,1,.642-1.974,3.645,3.645,0,0,0,1.929-2.655,1.334,1.334,0,0,1,1.68-1.22Zm3.26,7.98a.076.076,0,0,1-.108,0l-1.8-1.8a.076.076,0,0,0-.108,0L113.2,36.941a.076.076,0,0,0,0,.108l3.169,3.169a.076.076,0,0,0,.108,0l5.074-5.074a.076.076,0,0,0,0-.108l-1.257-1.257a.076.076,0,0,0-.108,0l-3.71,3.709Z" transform="translate(544.626 831.001)" fill="#9f4ae8" fill-rule="evenodd"/>
  </g>
</svg>
