<svg id="Layer_1" data-name="Layer 1" xmlns="http://www.w3.org/2000/svg" viewBox="0 0 32 32"><defs><style>.cls-1{fill:#002d74;}.cls-2{fill:#fff;}</style></defs><title>cro</title><circle class="cls-1" cx="16" cy="16" r="16"/><path id="path835" class="cls-2" d="M16,4.79l9.69,5.58V21.56L16,27.16l-.08,0L6.33,21.56V10.37l9.58-5.58ZM16,6l-8.6,5V21L16,26l1.05-.6L24.65,21V11L17,6.53ZM8.68,16.75l2.55-1.91,2.25,1.44v2.58l1.7,1.64v.77l-1.64,1.54H12.15L8.68,16.75Zm8,4.53V20.5l1.7-1.64V16.28l2.22-1.46,2.54,1.93-3.45,6H18.36Zm-2.41-5-.83-2.17h4.93l-.81,2.17.24,2.42H14.06Zm1.63-2.76H11.26l.87-3.89h7.59l.92,3.89Z"/></svg>